<svg xmlns="http://www.w3.org/2000/svg" viewBox="0 0 512 512" width="100" height="100">
  <!-- Wizard Hat -->
  <path fill="#7b1fa2" d="M256 16c-32 0-96 96-96 192s32 160 96 160 96-64 96-160S288 16 256 16z"/>
  <path fill="#9c27b0" d="M256 16c-16 0-48 48-64 112-13.3 53.3-13.3 101.3 0 144 6.7 21.3 16 40 28 56 4-5.3 8-13.3 12-24 8-21.3 12-45.3 12-72 0-53.3-16-106.7-48-160 8 5.3 18.7 18.7 32 40 21.3 34.7 37.3 74.7 48 120 5.3-16 8-32 8-48 0-21.3-2.7-42.7-8-64-10.7-42.7-27.9-75.4-51.7-98.2C273 22.6 263.3 16 256 16z"/>
  
  <!-- Stars on the Hat -->
  <circle fill="#e1bee7" cx="296" cy="96" r="4"/>
  <circle fill="#e1bee7" cx="276" cy="126" r="3"/>
  <circle fill="#e1bee7" cx="316" cy="156" r="5"/>
  <circle fill="#e1bee7" cx="246" cy="166" r="4"/>
  <circle fill="#e1bee7" cx="286" cy="186" r="3"/>
  <circle fill="#e1bee7" cx="226" cy="76" r="4"/>
  <circle fill="#e1bee7" cx="266" cy="46" r="3"/>
  
  <!-- Hat Brim -->
  <ellipse fill="#4a0072" cx="256" cy="368" rx="160" ry="16"/>

  <!-- Wizard Face (Simplified) -->
  <g transform="translate(0, 20)">
    <!-- Beard -->
    <path fill="#e1bee7" d="M256 384c-26.7 0-48 10.7-64 32-16 21.3-24 42.7-24 64 0 5.3 5.3 8 16 8h144c10.7 0 16-2.7 16-8 0-21.3-8-42.7-24-64-16-21.3-37.3-32-64-32z"/>
    
    <!-- Eyes -->
    <circle fill="#4a0072" cx="236" cy="392" r="6"/>
    <circle fill="#4a0072" cx="276" cy="392" r="6"/>
    
    <!-- Mouth -->
    <path fill="#4a0072" d="M246 412c6.7 2.7 13.3 4 20 4 6.7 0 13.3-1.3 20-4"/>
  </g>
</svg>
